#!OML:ASF F:\VICON\USERDATA\INSTALL\rory3\rory3.ASF
:FULLY-SPECIFIED
:DEGREES
28
root 0.4864078575944615 17.047514987236102 -5.235538958969839 2.370399015381391 1.0547580031294377 2.077318219833127
lfemur -13.950441368013392 -2.356592511777711 -26.43206378958849
ltibia 43.595131840923955
lfoot -18.064425094923223 -0.04345507168967977
ltoes -5.115373511904844
rfemur -26.67790422055129 -2.0014305455216905 17.914552151817706
rtibia 113.13655407556448
rfoot 13.3401685778794 -3.058884601471377
rtoes 16.04203063862516
lowerback 18.12278596710654 1.8192617359026468 -2.269349623030722
upperback 0.031475780762327266 1.9277731093699688 -0.6792942515071465
thorax -10.491029309288852 0.9412441504327986 0.652299314266951
lowerneck -19.390449077077186 -4.0644717733520785 -2.560083423247048
upperneck 7.21967071224789 -5.7433534960731665 6.735567138458151
head 5.600700495973217 -2.300323871621298 2.15837857009889
lclavicle -1.5447887973030538e-15 -3.2964363328658112e-15
lhumerus -43.26114329520322 -4.294998379453695 85.95697756521895
lradius 108.4337025723211
lwrist 35.75784576437113
lhand -27.276897591516885 6.757983711180656
lfingers 7.12502
lthumb -0.5840351056183561 36.81292375238477
rclavicle -1.5509334426898154e-15 -3.3025291242864933e-15
rhumerus -50.5021482914679 9.074699090024296 -103.2382385247243
rradius 97.2303245120091
rwrist -19.278750333849786
rhand -18.96049487401954 38.630034078098994
rfingers 7.12502
rthumb 6.803067000113005 8.174363276083996
29
root 0.5143087029004508 17.063636229324615 -4.351826132098447 3.422317467932584 1.81977556494133 1.1129253493427935
lfemur -11.60164391448264 -3.5207574897152467 -25.336210114651237
ltibia 43.646743660967935
lfoot -18.074896425771477 0.94564136614445
ltoes -6.935381437523285
rfemur -31.85104982984558 -2.946785195507817 19.52908871553477
rtibia 112.07361178648387
rfoot 10.89358432993766 -3.384972399903453
rtoes 12.338551724984326
lowerback 17.902862035462356 1.0980664003505738 -1.342569600110747
upperback -0.13316338449303367 1.2813919572146326 -0.16812317828676138
thorax -10.182940463880469 0.6560172636136262 0.7116602814158757
lowerneck -19.98100619923177 -3.7423487250691876 -2.5980313027518953
upperneck 7.395521154839979 -5.186042672003416 6.421038419625908
head 5.7168664187019145 -2.022429556580608 2.0817141458745185
lclavicle -1.5468797806886778e-15 -3.2979300837650823e-15
lhumerus -40.7313852009442 -5.04009378076845 85.41960834077068
lradius 110.18238938286422
lwrist 36.29078208871438
lhand -25.42129900017599 5.750808294938027
lfingers 7.12502
lthumb 0.6044291953421985 36.01365702523825
rclavicle -1.5443983686296083e-15 -3.2979802704105054e-15
rhumerus -52.797473386134584 8.103376505173266 -102.80937063006355
rradius 100.76356846979373
rwrist -20.491065511640848
rhand -18.274360414036003 39.02914102591327
rfingers 7.12502
rthumb 7.324287368756691 8.793602774075739
30
root 0.5334470140414812 17.145600766229258 -3.771573787749169 3.732643821337523 2.272553289076828 0.937316563040516
lfemur -8.855682118122996 -3.8505503337216758 -25.42262425676394
ltibia 42.8744250245851
lfoot -16.267225589126063 0.6159087354595716
ltoes -12.122970993348932
rfemur -35.71704287626251 -3.8314421259357707 20.263535984417878
rtibia 109.10507248064431
rfoot 9.118072554440731 -3.658697923963657
rtoes 8.31698805468936
lowerback 18.19603723070921 0.5400949870808265 -1.3903973874111046
upperback -0.2072587190236791 0.5811657261980001 0.1474051900337563
thorax -10.291653529536005 0.3598773655997671 1.1954054392120996
lowerneck -20.600394651800205 -3.449545228813936 -2.515491416794137
upperneck 7.629160191631302 -4.762585348575757 6.049479897624669
head 5.861902974191988 -1.7971350475170986 1.9370259802576753
lclavicle -1.5484007515257879e-15 -3.2990578209443067e-15
lhumerus -38.858658332763405 -5.729719575103274 85.00870746202837
lradius 112.92053299084182
lwrist 35.903254752943674
lhand -24.594807500247406 3.626796119663553
lfingers 7.12502
lthumb 1.8624746255390698 33.977451223358614
rclavicle -1.549097629047146e-15 -3.3010908082588795e-15
rhumerus -55.080667442022396 8.086318913751269 -102.51121538194911
rradius 104.40335434451053
rwrist -22.013890514346766
rhand -17.564838253248706 38.41382270110324
rfingers 7.12502
rthumb 7.699186061576249 8.918240355455536
31
root 0.5430156753894415 17.298251889340943 -2.7436963594055737 4.4367157414979825 1.9491732776408415 0.4210685843649946
lfemur -6.1631303419536625 -3.7813711566780634 -25.04836300634744
ltibia 41.23876509616031
lfoot -12.50456002632546 -0.5064566959706713
ltoes -18.95369751406723
rfemur -39.11557868378948 -3.6206056891412284 21.566976344347978
rtibia 104.02803323252559
rfoot 7.726643436846308 -4.094296897390555
rtoes 6.346078739083599
lowerback 17.870021307530223 0.16872171230195054 -1.3649141643316307
upperback -0.43341499043559817 0.1131460636766044 0.5588313299334013
thorax -10.11452940733659 0.15474174013507896 1.7271412154525758
lowerneck -21.097621802762493 -3.189600975006215 -2.4562599628675827
upperneck 7.688300549516044 -4.403115585420966 5.7944115092256965
head 5.857008991246336 -1.6350906798616114 1.8449258493903065
lclavicle -1.5448742434675423e-15 -3.2965372205884814e-15
lhumerus -37.61707069800061 -6.360115771417133 84.63939562750659
lradius 116.06321592632364
lwrist 35.80609105427769
lhand -24.349761471043323 3.4206769282549474
lfingers 7.12502
lthumb 2.3671083605704113 33.61343109252435
rclavicle -1.5497014178290324e-15 -3.301622313278603e-15
rhumerus -57.093128447515554 8.700826719380142 -102.09704552776917
rradius 107.06954886512774
rwrist -24.34996033818254
rhand -16.933632044675683 38.50315656276174
rfingers 7.12502
rthumb 8.329791657600492 9.27587880038326
32
root 0.5433028958449884 17.490705794318384 -1.8676082294666028 4.978552511071689 1.5867241475023426 -0.3343255879072071
lfemur -3.6022711610000133 -3.72330820980319 -24.387720820756776
ltibia 38.96836351998083
lfoot -7.230780077861927 -2.682845037695916
ltoes -25.605133658379028
rfemur -40.90348892311482 -3.1038754725087485 23.074507924108143
rtibia 96.81706642505189
rfoot 6.386647562779598 -4.897012989108285
rtoes 4.7471721331594425
lowerback 17.57676373356956 -0.22569554356743493 -1.0710363193569812
upperback -0.6315767464996846 -0.3185131683859257 1.0387622451411382
thorax -9.82272648430253 -0.03506513669017264 2.1779592306890514
lowerneck -21.031916430585085 -2.9851969617863583 -2.421881862170408
upperneck 7.604168119180922 -4.123055169749724 5.547390086461088
head 5.816973785174904 -1.4995064886578886 1.7669588796698432
lclavicle -1.545259309307405e-15 -3.296818093375878e-15
lhumerus -37.05270601345231 -6.888173334307946 84.60860821015834
lradius 119.16592917237502
lwrist 36.0123271007025
lhand -24.233607720891367 3.111676349660409
lfingers 7.12502
lthumb 2.0840275789610696 33.363364565961525
rclavicle -1.5490314081900334e-15 -3.3008877051569947e-15
rhumerus -59.196692086115995 9.136479488629465 -101.56460028067258
rradius 109.15334462220633
rwrist -25.929471399872952
rhand -16.66681448014371 38.20521745008812
rfingers 7.12502
rthumb 8.583775380411776 9.625422412391178
